Coordinates
version=1
nRows=16
nColumns=36
inDegrees=yes

Units are S.I. units (second, meters, Newtons, ...)
If the header above contains a line with 'inDegrees', this indicates whether rotational values are in degrees (yes) or radians (no).

endheader
time	pelvis_tilt	pelvis_list	pelvis_rotation	pelvis_tx	pelvis_ty	pelvis_tz	hip_flexion_r	hip_adduction_r	hip_rotation_r	knee_angle_r	knee_angle_r_beta	ankle_angle_r	subtalar_angle_r	mtp_angle_r	hip_flexion_l	hip_adduction_l	hip_rotation_l	knee_angle_l	knee_angle_l_beta	ankle_angle_l	subtalar_angle_l	mtp_angle_l	lumbar_extension	lumbar_bending	lumbar_rotation	arm_flex_r	arm_add_r	arm_rot_r	elbow_flex_r	pro_sup_r	arm_flex_l	arm_add_l	arm_rot_l	elbow_flex_l	pro_sup_l
      1.38333330	      7.09414319	     -0.87179116	     -0.54606652	     -0.13225095	      1.29026969	      0.36776529	    -11.83477719	      0.15109057	      6.05003895	      0.21222536	      0.00370403	     11.03811814	     -3.84878898	     -7.49999984	    -12.62001010	     -2.15705536	      2.84891708	      0.96845316	      0.01690270	      3.78451765	     -7.15871227	     -7.49999984	    -19.06644923	      0.87675245	      1.61266986	      1.82237987	    -12.31919794	     16.87064174	     20.71426038	     64.55227422	      3.53267551	     -8.10511454	     10.02456600	     24.08541967	     64.28210155
      1.40000000	      6.93745116	     -0.91387566	     -0.62535115	     -0.14006236	      1.29313998	      0.37170577	    -11.60207384	      0.22018317	      6.21104233	      0.21081641	      0.00367944	     10.93665590	     -4.01396550	     -7.49999985	    -12.36678072	     -2.20708049	      2.89084309	      1.00208599	      0.01748970	      3.78418027	     -7.36503894	     -7.49999985	    -19.10510460	      0.82309102	      1.71302810	      2.20826221	    -12.28077810	     16.97858800	     20.70252779	     64.38434159	      3.78456957	     -8.23099896	     10.28647105	     24.13832877	     64.16959265
      1.41666670	      6.82367073	     -0.92214266	     -0.66657129	     -0.13177038	      1.29273235	      0.36760177	    -11.49288581	      0.22300071	      6.14537424	      0.21296521	      0.00371694	     10.96539319	     -3.89541107	     -7.49999985	    -12.28700228	     -2.18577329	      2.93980775	      0.93756934	      0.01636367	      3.73183158	     -7.54777923	     -7.49999985	    -19.01932833	      0.81483983	      1.68761735	      2.27125243	    -12.31642919	     16.96875387	     20.82399331	     64.23022945	      3.48982831	     -8.30583416	     10.29495092	     23.99668136	     64.04176658
      1.43333330	      6.70134348	     -0.95967588	     -0.64596223	     -0.13988532	      1.29554435	      0.37141908	    -11.30093531	      0.29586234	      6.17363186	      0.21297116	      0.00371705	     10.91944536	     -3.96820637	     -7.49999986	    -12.07779772	     -2.23680912	      3.03422676	      0.94775360	      0.01654142	      3.66177857	     -7.68855306	     -7.49999986	    -19.14934697	      0.81598741	      1.55507440	      2.26945069	    -12.22322562	     16.75702231	     20.77039381	     64.02308553	      3.46080058	     -8.49676061	     10.36905730	     24.08280786	     63.96050466
      1.45000000	      6.61620335	     -0.96882369	     -0.65294443	     -0.14859811	      1.29551341	      0.36828989	    -11.10029863	      0.32566924	      6.25672389	      0.22153914	      0.00386659	     10.74797326	     -4.14610084	     -7.49999986	    -11.80554965	     -2.23801201	      2.81388542	      1.03577995	      0.01807777	      3.90096248	     -7.33979322	     -7.49999986	    -19.56406572	      0.81747551	      1.52232321	      2.54938008	    -12.27134442	     16.82310024	     20.66096926	     64.44248828	      3.96255710	     -8.67420408	     10.71098813	     23.89779631	     64.48729753
      1.46666670	      6.58517522	     -1.00189545	     -0.63488813	     -0.14807142	      1.29200009	      0.36845268	    -10.94184197	      0.37034185	      5.95740901	      0.23502159	      0.00410190	     10.80223700	     -3.68887100	     -7.49999986	    -11.57823161	     -2.25521158	      2.68511850	      1.14918208	      0.02005701	      3.90793857	     -7.27985644	     -7.49999986	    -20.22729606	      0.83960265	      1.43558700	      2.91733597	    -12.41395526	     16.62007444	     20.92437531	     64.15650874	      4.24104247	     -8.83872611	     10.55988410	     24.20002898	     64.29877336
      1.48333330	      6.37693350	     -1.02249412	     -0.69151483	     -0.13882481	      1.29244204	      0.37090070	    -10.68705587	      0.39810276	      6.09841241	      0.24235198	      0.00422984	     10.58278824	     -4.06058798	     -7.49999986	    -11.26101333	     -2.26180801	      2.59378346	      1.24199484	      0.02167690	      3.75001726	     -7.43704817	     -7.49999986	    -20.23796105	      0.80603632	      1.50998578	      2.98395762	    -12.34259535	     16.50075210	     20.38431467	     64.41276797	      4.32381826	     -8.92849775	     10.52037347	     23.43725592	     64.73174658
      1.50000000	      6.43525232	     -1.03948056	     -0.72890995	     -0.13920074	      1.29582500	      0.37117721	    -10.73985231	      0.42228088	      6.00063872	      0.24391169	      0.00425706	     10.59619289	     -3.88640577	     -7.49999987	    -11.26753642	     -2.27028862	      2.52222648	      1.28381945	      0.02240688	      3.69399347	     -7.38368075	     -7.49999987	    -20.66269214	      0.76674115	      1.58483045	      2.76466887	    -12.31872923	     14.46746268	     20.61018364	     67.43983230	      4.15931696	     -9.10542481	      9.42433660	     23.33117345	     68.46681864
      1.51666670	      6.45170488	     -1.04943961	     -0.79246978	     -0.13895319	      1.29599947	      0.37073412	    -10.77071960	      0.43939354	      5.90474427	      0.24976252	      0.00435918	     10.63183404	     -3.77096760	     -7.49999987	    -11.26283481	     -2.25944104	      2.45680880	      1.32634683	      0.02314912	      3.61106654	     -7.38051216	     -7.49999987	    -20.98781512	      0.76521018	      1.40803945	      2.70720123	    -12.40882970	     14.08047360	     20.36650334	     66.78337154	      4.03873137	     -9.24166614	      8.93886217	     23.11030116	     67.65642749
      1.53333330	      6.58118594	     -1.08994400	     -0.77270367	     -0.14782276	      1.29217133	      0.36814060	    -10.86411881	      0.49794114	      5.72864511	      0.26377865	      0.00460381	     10.67911932	     -3.53642633	     -7.49999987	    -11.24412019	     -2.29479184	      2.35979284	      1.49574768	      0.02610572	      3.61531500	     -7.30717422	     -7.49999987	    -21.71388147	      0.79226456	      1.37145914	      2.67584737	    -12.68133425	     13.77122664	     20.46969972	     66.26645080	      3.83206651	     -9.43252031	      8.64832707	     23.42571049	     67.09564129
      1.55000000	      6.41378168	     -1.09683813	     -0.72304118	     -0.14685625	      1.28880554	      0.36757918	    -10.67493395	      0.51318841	      5.65747967	      0.29473414	      0.00514408	     10.60728517	     -3.59294691	     -7.49999987	    -10.87587512	     -2.29284329	      2.25820388	      1.76811035	      0.03085935	      3.52503574	     -7.30826675	     -7.49999987	    -21.99746824	      0.83544453	      1.29091759	      2.39136965	    -13.07679163	     13.70726218	     20.40436050	     66.23466150	      3.67199737	     -9.65271608	      8.61587377	     23.48777446	     67.06894550
      1.56666670	      6.58968717	     -1.10673506	     -0.64248040	     -0.14722268	      1.28905346	      0.36777790	    -10.83321996	      0.52896773	      5.63713640	      0.31325571	      0.00546734	     10.41327317	     -3.92367962	     -7.49999987	    -10.84551946	     -2.29492031	      2.30472359	      2.06055600	      0.03596349	      3.43523616	     -7.58834635	     -7.49999987	    -22.76769957	      0.91795599	      1.02889442	      2.42285323	    -13.21844644	     13.19426157	     19.82706051	     65.82055410	      3.63384398	     -9.77799653	      8.29292241	     23.18058658	     66.70836260
      1.58333330	      6.56703550	     -1.12309303	     -0.56478778	     -0.14736017	      1.29052503	      0.36738446	    -10.77479472	      0.55208477	      5.47502134	      0.34433018	      0.00600970	     10.33500559	     -3.84806894	     -7.49999987	    -10.61173970	     -2.30348212	      2.20516224	      2.35084132	      0.04102992	      3.47968804	     -7.62512034	     -7.49999987	    -23.27873272	      0.96672613	      1.05211860	      2.07838914	    -13.26296242	     10.39309970	     19.59523264	     69.91566212	      3.67893551	     -9.84045578	      6.98035817	     22.67755079	     71.20191257
      1.60000000	      6.59451622	     -1.08349321	     -0.49863300	     -0.14030161	      1.29403754	      0.36419432	    -10.82353806	      0.49124388	      5.35238570	      0.38029492	      0.00663740	     10.29244643	     -3.90071610	     -7.49999987	    -10.58681806	     -2.22233034	      2.15274079	      2.45097771	      0.04277763	      3.45685995	     -7.65531506	     -7.49999987	    -23.74420141	      1.00184181	      0.96749983	      1.61258170	    -13.63028854	     10.31960558	     19.35389183	     69.89624134	      3.18628305	     -9.97727876	      6.93670412	     22.41089452	     71.18655692
      1.61666670	      6.71286509	     -1.03542480	     -0.45345324	     -0.13966113	      1.29110048	      0.36374113	    -10.99780923	      0.41895227	      5.25022206	      0.40976623	      0.00715177	     10.35463691	     -3.97857406	     -7.49999987	    -10.74906728	     -2.11791028	      2.17128302	      2.53895461	      0.04431312	      3.44646680	     -7.70425950	     -7.49999987	    -24.27696400	      1.06414984	      0.88481223	      0.84532269	    -14.03697397	     10.20036256	     18.92848219	     69.87259073	      2.25331266	    -10.18166770	      6.86323956	     21.85276505	     71.17589872
      1.63333330	      7.37701154	     -0.98351361	     -0.27207604	     -0.14048457	      1.29494397	      0.36396996	    -11.76958174	      0.35703697	      4.94293753	      0.43000564	      0.00750501	     10.47117414	     -3.91545942	     -7.49999987	    -11.42552841	     -2.03216239	      2.38500459	      2.69770340	      0.04708381	      3.56333583	     -7.75857987	     -7.49999987	    -25.53326442	      1.20907046	      0.32832447	      0.46446626	    -14.24527163	      9.06102755	     18.53842780	     68.98372174	      1.77747975	    -10.25297430	      6.10214836	     20.69664374	     70.33402167
